<svg xmlns="http://www.w3.org/2000/svg" width="986" height="264" fill="none"><path fill="#1F2632" d="M304.042 198.997h.175c-9.641-5.632-17.178-13.728-22.788-24.288-5.609-10.56-8.413-22.704-8.413-36.256 0-13.728 2.804-25.872 8.238-36.256 5.434-10.384 12.972-18.48 22.612-24.112 9.641-5.632 20.509-8.448 32.604-8.448 10.167 0 19.457 1.936 27.871 5.808 8.414 3.872 15.426 9.328 21.035 16.368 5.609 7.04 9.641 15.312 11.919 24.64h-23.664c-2.979-8.624-7.537-15.488-13.672-20.592-6.135-5.104-14.023-7.744-23.664-7.744-8.063 0-15.075 2.112-21.21 6.336-6.135 4.224-10.868 10.208-14.198 17.776-3.331 7.568-4.909 16.368-4.909 26.4s1.753 18.832 5.259 26.4c3.506 7.568 8.239 13.552 14.374 17.776s12.971 6.336 20.684 6.336c9.641 0 17.704-2.464 24.19-7.392 6.485-4.928 11.218-11.968 14.373-21.12h23.489c-4.382 15.488-11.919 27.104-22.612 35.024-10.693 7.92-23.839 11.792-39.44 11.792-11.92 0-22.612-2.816-32.253-8.448Zm128.497 6.336h-21.911V71.573h21.911v133.76Zm36.562-4.048h-.175c-7.187-4.224-12.621-10.032-16.477-17.6-3.857-7.568-5.785-16.192-5.785-25.872s1.928-18.304 5.785-25.696c3.856-7.392 9.465-13.2 16.652-17.424 7.187-4.224 15.601-6.336 25.242-6.336s18.054 2.112 25.241 6.336c7.187 4.224 12.796 10.032 16.653 17.424 3.856 7.392 5.784 16.016 5.784 25.696 0 9.68-1.928 18.304-5.784 25.872-3.857 7.568-9.466 13.376-16.653 17.6-7.187 4.224-15.6 6.336-25.241 6.336s-18.055-2.112-25.242-6.336Zm38.739-13.376-.351.352c3.857-2.816 6.661-6.688 8.589-11.792 1.929-5.104 2.98-11.264 2.98-18.304 0-6.864-.876-12.848-2.804-17.952-1.928-5.104-4.733-8.976-8.589-11.792-3.857-2.816-8.414-4.224-13.848-4.224-5.259 0-9.816 1.408-13.673 4.224-3.856 2.816-6.661 6.688-8.589 11.792-1.928 5.104-2.98 11.088-2.98 17.952 0 6.864 1.052 12.848 2.98 17.952 1.928 5.104 4.908 8.976 8.765 11.792 3.856 2.816 8.413 4.224 13.672 4.224 5.434 0 9.992-1.408 13.848-4.224Zm108.341-77.44 21.385-.352v94.864H615.83v-18.832c-2.278 6.16-5.784 11.264-10.692 15.136s-11.043 5.808-18.581 5.808c-7.011 0-12.796-1.584-17.529-4.752-4.733-3.168-8.238-7.568-10.517-13.2s-3.506-12.144-3.506-19.36v-59.488h21.911v55.44c0 8.624 1.753 15.136 5.084 19.36 3.33 4.224 8.238 6.336 14.549 6.336 6.31 0 11.218-2.112 14.549-6.336 3.33-4.224 5.083-10.736 5.083-19.536v-55.088Zm108.564-38.896 21.561.176v133.76H724.57v-20.24c-1.928 4.4-4.557 8.272-7.888 11.616-3.33 3.344-7.011 5.984-11.221 7.92-4.207 1.936-8.589 2.816-13.322 2.816-7.538 0-14.374-2.112-20.334-6.336-5.96-4.224-10.692-10.208-14.023-17.776-3.33-7.568-5.083-16.192-5.083-25.696 0-9.504 1.753-17.952 5.083-25.52 3.331-7.568 8.063-13.376 14.023-17.6 5.96-4.224 12.796-6.336 20.334-6.336 5.434 0 10.342 1.056 14.724 3.344 4.385 2.288 8.066 5.28 11.046 8.976 2.98 3.696 5.259 7.744 6.836 12.144V71.573Zm-11.043 116.512-.35.176c3.856-2.816 6.661-6.688 8.589-11.792 1.928-5.104 2.98-11.264 2.98-18.304 0-6.864-.877-12.848-2.805-17.952-1.928-5.104-4.733-8.976-8.589-11.792-3.856-2.816-8.417-4.224-13.851-4.224-5.434 0-9.991 1.408-13.848 4.224-3.856 2.816-6.661 6.688-8.589 11.792-1.928 5.104-2.804 11.088-2.804 17.952 0 7.04 1.051 13.024 2.979 18.128 1.929 5.104 4.733 8.976 8.59 11.792 3.856 2.816 8.413 4.224 13.847 4.224 5.434 0 9.995-1.408 13.851-4.224Zm74.403 17.248h-21.911v-94.864h21.911v94.864Zm.526-109.472h-22.963V71.573h22.963v24.288Zm62.848-8.272-.175.352c-4.382 0-7.538.88-9.641 2.64-2.103 1.76-3.155 4.928-3.155 9.504v10.56h22.787v16.192h-22.787v78.672h-21.911v-78.672h-18.406v-16.192h18.406v-11.44c0-5.984 1.402-11.088 4.031-15.312 2.63-4.224 6.311-7.392 10.868-9.328 4.558-1.936 9.992-2.992 16.127-2.992h13.848V87.59h-9.992Zm58.656 104.368 25.242-81.488h22.963l-40.492 129.36h-22.612l13.848-44.704h-19.458l-30.324-84.656h22.086l28.747 81.488Z"/><mask id="a" width="241" height="177" x="1" y="43" maskUnits="userSpaceOnUse" style="mask-type:luminance"><path fill="#fff" d="M241.016 43.377H1.826v175.651h239.19V43.377Z"/></mask><g mask="url(#a)"><path fill="url(#b)" d="M195.82 219.03v-.049c13.749-.48 27.229-4.427 39.155-11.491 5.693-3.373 7.693-10.928 4.468-16.88-3.226-5.951-10.454-8.042-16.147-4.67a59.536 59.536 0 0 1-30.317 8.321H62.697c-8.558 0-16.482-3.022-22.799-8.103l-12.68 21.15c10.185 7.614 22.35 11.722 35.12 11.722H195.82Z"/><path fill="url(#c)" d="M19.855 110.676c-11.622 11.989-18.03 28.01-18.03 45.061 0 17.052 6.3 32.799 17.735 44.753a62.243 62.243 0 0 0 7.69 6.817l12.681-21.151c-8.718-7.017-14.377-17.96-14.41-30.307-.056-21.292 16.496-38.632 36.852-38.632h19.973c.626 0 1.199-.245 1.637-.65l-20.44-24.12h-.707c-16.05 0-31.556 6.444-42.98 18.229Z"/><path fill="url(#d)" d="M161.578 56.58c-10.899-8.637-23.906-13.203-37.613-13.203-15.886 0-31.016 6.252-42.601 17.602-8.776 8.598-14.898 19.5-17.799 31.466l20.44 24.121a2.633 2.633 0 0 0 .833-1.763l.604-9.119c1.39-21.048 18.312-37.537 38.523-37.537 16.982 0 32.211 11.872 37.031 28.873l1.988 7.01c.147.521.443.962.828 1.283l16.684-24.198c-4.28-9.598-10.808-18.11-18.918-24.536Z"/><path fill="url(#e)" d="M193.015 153.839H57.919c-6.497 0-11.933 5.382-12.041 12.173-.11 6.936 5.234 12.595 11.845 12.595h134.89c10.396 0 20.093-3.607 27.949-9.679l-13.429-20.181c-3.894 3.189-8.798 5.092-14.118 5.092Z"/><path fill="url(#f)" d="M239.615 129.885c.012-26.891-20.912-48.771-46.632-48.771h-12.536l-16.684 24.199c.428.36.971.572 1.548.572h27.378c12.628 0 23.106 10.539 23.228 23.742.072 7.756-3.398 14.686-8.82 19.123l13.429 20.181c11.516-8.903 19.081-23.116 19.089-39.046Z"/></g><defs><linearGradient id="b" x1="27.218" x2="215.564" y1="201.679" y2="201.679" gradientUnits="userSpaceOnUse"><stop stop-color="#FDCE0B"/><stop offset=".56" stop-color="#FF5033"/><stop offset="1" stop-color="#FF636A" stop-opacity="0"/></linearGradient><linearGradient id="c" x1="42.904" x2="42.904" y1="92.447" y2="207.307" gradientUnits="userSpaceOnUse"><stop stop-color="#9CED11"/><stop offset="1" stop-color="#FECE0A"/></linearGradient><linearGradient id="d" x1="176.655" x2="66.153" y1="80.356" y2="117.01" gradientUnits="userSpaceOnUse"><stop stop-color="#08B086"/><stop offset="1" stop-color="#B1F500"/></linearGradient><linearGradient id="e" x1="45.876" x2="220.562" y1="163.677" y2="163.677" gradientUnits="userSpaceOnUse"><stop stop-color="#3BD5FB" stop-opacity="0"/><stop offset="1" stop-color="#3185FE"/></linearGradient><linearGradient id="f" x1="163.763" x2="239.615" y1="85.201" y2="164.844" gradientUnits="userSpaceOnUse"><stop stop-color="#20BA72"/><stop offset="1" stop-color="#3185FF"/></linearGradient></defs></svg>